<svg id="logo" xmlns="http://www.w3.org/2000/svg" xmlns:xlink="http://www.w3.org/1999/xlink" width="474.791" height="133.192" viewBox="0 0 474.791 133.192">
  <defs>
    <clipPath id="clip-path">
      <rect id="Rect치ngulo_1545" data-name="Rect치ngulo 1545" width="474.791" height="133.192" fill="none"/>
    </clipPath>
  </defs>
  <rect id="Rect치ngulo_1544" data-name="Rect치ngulo 1544" width="137.204" height="133.192" fill="#0C356A"/>
  <g id="Grupo_1661" data-name="Grupo 1661">
    <g id="Grupo_1660" data-name="Grupo 1660" clip-path="url(#clip-path)">
      <path id="Trazado_3464" data-name="Trazado 3464" d="M80.737,83.922l-2.183,18.655H27.7V101.2c3.065-1.332,4.974-2.575,5.731-3.686s1.154-3.421,1.154-6.929V49.544c0-3.508-.4-5.822-1.154-6.929s-2.665-2.354-5.731-3.686V37.6H75.359L77,56.121H75.625a22.461,22.461,0,0,0-6.795-9.594,17.965,17.965,0,0,0-12.038-4.086H50.086v23.4h7.46a12.288,12.288,0,0,0,6.929-1.91,13.307,13.307,0,0,0,4.4-4.53h1.155v17.77H68.871c-2.532-4.931-6.306-7.373-11.281-7.328l-7.46.177V93.385c0,1.288.843,2.31,2.531,3.109a16.16,16.16,0,0,0,6.84,1.2h2.177a15.135,15.135,0,0,0,10.26-4.087,33.909,33.909,0,0,0,7.551-9.593Z" transform="translate(-2.5 -3.394)" fill="#fff"/>
      <path id="Trazado_3465" data-name="Trazado 3465" d="M108.569,91.55c0,3.287.311,5.458.932,6.574s2.088,2.221,4.354,3.375v1.376H89.2V101.5c2.31-1.154,3.774-2.309,4.4-3.42s.932-3.331.932-6.618V74.449a27.394,27.394,0,0,0-.622-6.617,6.55,6.55,0,0,0-1.421-3.02,34.282,34.282,0,0,0-3.287-2.4V61.125a91.3,91.3,0,0,0,19.321-3.6V91.461ZM100.53,52.332a7.36,7.36,0,0,1-5.2-2.092,6.488,6.488,0,0,1-2.176-4.886,6.368,6.368,0,0,1,2.176-4.8,7.36,7.36,0,0,1,5.2-2.092,7.14,7.14,0,0,1,5.152,2.042,6.613,6.613,0,0,1,0,9.728,7.181,7.181,0,0,1-5.108,2Z" transform="translate(-8.052 -3.472)" fill="#fff"/>
      <path id="Trazado_3466" data-name="Trazado 3466" d="M201.273,38.778,199.6,53.12H160.5V52.062c2.357-1.023,3.825-1.98,4.406-2.834s.888-2.63.888-5.327V12.344c0-2.7-.307-4.474-.888-5.328s-2.049-1.81-4.406-2.834V3.157h36.645L198.409,17.4h-1.064a17.269,17.269,0,0,0-5.225-7.376,13.812,13.812,0,0,0-9.256-3.142h-5.156v18h5.737a9.456,9.456,0,0,0,5.328-1.468,10.238,10.238,0,0,0,3.386-3.483h.888V33.587h-.888c-1.946-3.792-4.849-5.669-8.674-5.635l-5.738.136V46.051c0,.991.65,1.777,1.947,2.392a12.429,12.429,0,0,0,5.259.922h1.674a11.639,11.639,0,0,0,7.888-3.142,26.1,26.1,0,0,0,5.807-7.376Z" transform="translate(-14.488 -0.285)" fill="#0C356A"/>
      <path id="Trazado_3467" data-name="Trazado 3467" d="M241.164,50.023a11.2,11.2,0,0,0,4.406,3.688V54.77H225.524V53.709c2.562-.512,3.825-1.264,3.792-2.22a3.691,3.691,0,0,0-.683-1.741l-4.918-7.513-4.406,5.533a4.465,4.465,0,0,0-1.229,3,3.071,3.071,0,0,0,2.356,2.971V54.8H207.628V53.744a25.844,25.844,0,0,0,7.785-6.147l6.626-7.89-9.563-13.933a8.09,8.09,0,0,0-4.51-3.687v-1.06h20.047v1.06q-3.74.767-3.688,2.253a6.668,6.668,0,0,0,1.472,3.213l3.62,5.532,3.931-5.023a6.034,6.034,0,0,0,1.537-2.971c0-.991-.854-1.981-2.528-3V21.026h12.329v1.06a22.485,22.485,0,0,0-7.888,6.556l-5.567,7.07L241.2,50.056Z" transform="translate(-18.742 -1.898)" fill="#0C356A"/>
      <path id="Trazado_3468" data-name="Trazado 3468" d="M273.356,20a12.754,12.754,0,0,1,9.734,4.406c2.7,2.937,4.029,7.138,4.029,12.6,0,5.84-1.468,10.347-4.4,13.555A13.489,13.489,0,0,1,272.5,55.376a14.365,14.365,0,0,1-9.393-3.484h-.136v8.061c0,2.526.342,4.2,1.06,5.054s2.288,1.708,4.712,2.6v1.058h-20.56V67.608a7.849,7.849,0,0,0,3.381-2.63q.717-1.282.718-5.02V28.2a3.942,3.942,0,0,0-.819-2.766,9.946,9.946,0,0,0-3.313-1.91v-.992A68.608,68.608,0,0,0,262.8,19.863l-.067,6.147.136.069c2.937-4.065,6.459-6.08,10.553-6.08Zm-2.7,31.624c1.776,0,3.108-1.059,4-3.141a22.162,22.162,0,0,0,1.332-8.5,27.638,27.638,0,0,0-1.741-10.45c-1.162-2.835-2.9-4.235-5.191-4.235-2.05,0-4.065,1.365-6.08,4.065V41.515a22.727,22.727,0,0,0,2.938,7.172c1.3,2.015,2.868,3,4.679,3Z" transform="translate(-22.4 -1.793)" fill="#0C356A"/>
      <path id="Trazado_3469" data-name="Trazado 3469" d="M311.109,55.386q-8.248,0-13.114-4.61c-3.244-3.074-4.849-7.278-4.849-12.637,0-5.464,1.638-9.869,4.918-13.182s7.717-4.986,13.282-4.986c5.431,0,9.734,1.571,12.944,4.713s4.815,7.377,4.815,12.736c0,5.464-1.638,9.835-4.883,13.08s-7.614,4.885-13.078,4.885Zm1.537-2.868a4.559,4.559,0,0,0,3.859-2.323c1.024-1.537,1.537-3.859,1.537-6.932a40.107,40.107,0,0,0-.444-5.7A55.09,55.09,0,0,0,316.234,31a15.513,15.513,0,0,0-2.729-5.635,5.1,5.1,0,0,0-4-2.254,4.621,4.621,0,0,0-3.894,2.288c-1.058,1.537-1.6,3.859-1.6,6.968A39.45,39.45,0,0,0,304.454,38a47.77,47.77,0,0,0,1.435,6.523,16.242,16.242,0,0,0,2.766,5.6,5.186,5.186,0,0,0,4.094,2.253Z" transform="translate(-26.461 -1.803)" fill="#0C356A"/>
      <path id="Trazado_3470" data-name="Trazado 3470" d="M175.775,81.514A6.55,6.55,0,1,1,169.261,75a6.55,6.55,0,0,1,6.514,6.514m-1.1,44.084h-10.97V91.8h10.97Z" transform="translate(-14.684 -6.77)" fill="#6C9DDB"/>
      <path id="Trazado_3471" data-name="Trazado 3471" d="M213.946,108.206V127.2H202.908V109.646c0-3.839-2.194-6.375-5.622-6.375-3.36,0-5.622,2.536-5.622,6.375V127.2h-10.97V93.4h10.97v3.912a10.023,10.023,0,0,1,8.5-4.593c8.638,0,13.78,5.822,13.78,15.494" transform="translate(-16.311 -8.369)" fill="#6C9DDB"/>
      <path id="Trazado_3472" data-name="Trazado 3472" d="M256.917,93.4V125.62c0,9.667-7.816,15.289-17.688,15.289-5.828,0-17.209-1.783-17.894-12.684H232.3c.343,2.468,3.291,3.633,6.582,3.633,3.5,0,6.993-2.263,6.993-5.76v-3.976a11.717,11.717,0,0,1-9.8,4.524c-8.571,0-15.357-7.61-15.357-16.934,0-9.393,6.787-17,15.357-17a11.716,11.716,0,0,1,9.8,4.525V93.4Zm-11.038,16.316a7.211,7.211,0,1,0-7.2,6.787,7,7,0,0,0,7.2-6.787" transform="translate(-19.924 -8.369)" fill="#6C9DDB"/>
      <path id="Trazado_3473" data-name="Trazado 3473" d="M298.124,113.142H273.992a7.291,7.291,0,0,0,7.473,5.69c3.291,0,5.142-1.371,5.622-3.222H297.85c-1.029,7.473-7.4,12.272-16.043,12.272a17.546,17.546,0,0,1-17.825-17.688A17.285,17.285,0,0,1,281.6,92.712a16.634,16.634,0,0,1,16.8,16.523c0,.892-.137,2.674-.273,3.907m-11.243-6.924c-.273-2.743-2.88-4.594-5.828-4.594a6.491,6.491,0,0,0-6.582,4.594Z" transform="translate(-23.829 -8.369)" fill="#6C9DDB"/>
      <path id="Trazado_3474" data-name="Trazado 3474" d="M338.461,108.206V127.2H327.423V109.646c0-3.839-2.193-6.375-5.622-6.375-3.359,0-5.622,2.536-5.622,6.375V127.2h-10.97V93.4h10.97v3.912a10.022,10.022,0,0,1,8.5-4.593c8.638,0,13.78,5.822,13.78,15.494" transform="translate(-27.55 -8.369)" fill="#6C9DDB"/>
      <path id="Trazado_3475" data-name="Trazado 3475" d="M358.554,81.514A6.55,6.55,0,1,1,352.04,75a6.55,6.55,0,0,1,6.514,6.514m-1.1,44.084h-10.97V91.8h10.97Z" transform="translate(-31.183 -6.77)" fill="#6C9DDB"/>
      <path id="Trazado_3476" data-name="Trazado 3476" d="M396.259,113.142H372.127a7.292,7.292,0,0,0,7.473,5.69c3.291,0,5.142-1.371,5.622-3.222h10.764c-1.029,7.473-7.4,12.272-16.043,12.272a17.546,17.546,0,0,1-17.825-17.688,17.285,17.285,0,0,1,17.62-17.482,16.634,16.634,0,0,1,16.8,16.523c0,.892-.136,2.674-.273,3.907m-11.243-6.924c-.273-2.743-2.88-4.594-5.828-4.594a6.491,6.491,0,0,0-6.582,4.594Z" transform="translate(-32.687 -8.369)" fill="#6C9DDB"/>
      <path id="Trazado_3477" data-name="Trazado 3477" d="M426.107,93.129v10.007a21.849,21.849,0,0,0-3.5-.411c-4.593,0-8.3,2.4-8.3,8.844V127.2h-10.97V93.4h10.967v3.565a10.2,10.2,0,0,1,8.571-4.185,18.441,18.441,0,0,1,3.221.343" transform="translate(-36.409 -8.375)" fill="#6C9DDB"/>
      <path id="Trazado_3478" data-name="Trazado 3478" d="M442.128,125.816h-10.97v-33.8h10.97Zm-.754-37.365H431.226l5.964-11.038h12.89Z" transform="translate(-38.919 -6.988)" fill="#6C9DDB"/>
      <path id="Trazado_3479" data-name="Trazado 3479" d="M482.883,93.4v33.8H471.845v-3.976a11.639,11.639,0,0,1-9.8,4.662c-8.571,0-15.357-7.885-15.357-17.551s6.787-17.619,15.357-17.619a11.639,11.639,0,0,1,9.8,4.661V93.4ZM471.845,110.33a7.2,7.2,0,1,0-7.2,7.061,7.082,7.082,0,0,0,7.2-7.061" transform="translate(-40.321 -8.368)" fill="#6C9DDB"/>
      <path id="Trazado_3480" data-name="Trazado 3480" d="M489.5,115.617h9.94c.207,1.989,2.47,3.429,5.212,3.429,2.878,0,4.185-.96,4.185-2.332,0-5-18.65.411-18.65-13.163,0-5.828,5-10.765,13.575-10.765,7.542,0,14.123,3.976,14.945,11.518H508.143c-.136-1.577-1.987-2.948-4.319-2.948-2.4,0-3.634.819-3.634,2.194,0,4.867,18.786-1.851,18.786,13.232,0,6.239-5.9,11.106-13.575,11.106-9.05,0-15.22-4.593-15.9-12.272" transform="translate(-44.185 -8.376)" fill="#6C9DDB"/>
    </g>
  </g>
</svg>
