<svg xmlns="http://www.w3.org/2000/svg" xmlns:xlink="http://www.w3.org/1999/xlink" width="1920" zoomAndPan="magnify" viewBox="0 0 1440 809.999993" height="1080" preserveAspectRatio="xMidYMid meet" version="1.0"><defs><clipPath id="a50dd7b0d2"><path d="M 353.105469 37.625 L 1087.265625 37.625 L 1087.265625 771.785156 L 353.105469 771.785156 Z M 353.105469 37.625 " clip-rule="nonzero"/></clipPath><clipPath id="a2d240dccb"><path d="M 720.183594 37.625 C 517.453125 37.625 353.105469 201.972656 353.105469 404.703125 C 353.105469 607.4375 517.453125 771.785156 720.183594 771.785156 C 922.917969 771.785156 1087.265625 607.4375 1087.265625 404.703125 C 1087.265625 201.972656 922.917969 37.625 720.183594 37.625 Z M 720.183594 37.625 " clip-rule="nonzero"/></clipPath></defs><rect x="-144" width="1728" fill="#ffffff" y="-80.999999" height="971.999992" fill-opacity="1"/><g clip-path="url(#a50dd7b0d2)"><g clip-path="url(#a2d240dccb)"><path stroke-linecap="butt" transform="matrix(0.379213, 0, 0, 0.379213, 353.106696, 37.626364)" fill="none" stroke-linejoin="miter" d="M 967.99549 -0.00359805 C 433.387671 -0.00359805 -0.00323751 433.38731 -0.00323751 967.995129 C -0.00323751 1502.613249 433.387671 1936.004157 967.99549 1936.004157 C 1502.613609 1936.004157 1936.004518 1502.613249 1936.004518 967.995129 C 1936.004518 433.38731 1502.613609 -0.00359805 967.99549 -0.00359805 Z M 967.99549 -0.00359805 " stroke="#000000" stroke-width="200" stroke-opacity="1" stroke-miterlimit="4"/></g></g></svg>