<svg xmlns="http://www.w3.org/2000/svg" xmlns:xlink="http://www.w3.org/1999/xlink" width="1920" zoomAndPan="magnify" viewBox="0 0 1440 809.999993" height="1080" preserveAspectRatio="xMidYMid meet" version="1.0"><defs><clipPath id="d1dd1ebd4e"><path d="M 353.105469 37.625 L 1087.265625 37.625 L 1087.265625 771.785156 L 353.105469 771.785156 Z M 353.105469 37.625 " clip-rule="nonzero"/></clipPath><clipPath id="21484e2e4b"><path d="M 720.183594 37.625 C 517.453125 37.625 353.105469 201.972656 353.105469 404.703125 C 353.105469 607.4375 517.453125 771.785156 720.183594 771.785156 C 922.917969 771.785156 1087.265625 607.4375 1087.265625 404.703125 C 1087.265625 201.972656 922.917969 37.625 720.183594 37.625 Z M 720.183594 37.625 " clip-rule="nonzero"/></clipPath><clipPath id="40f3b0900e"><path d="M 537 236.539062 L 902 236.539062 L 902 572.898438 L 537 572.898438 Z M 537 236.539062 " clip-rule="nonzero"/></clipPath></defs><g clip-path="url(#d1dd1ebd4e)"><g clip-path="url(#21484e2e4b)"><path stroke-linecap="butt" transform="matrix(0.379213, 0, 0, 0.379213, 353.106696, 37.626364)" fill="none" stroke-linejoin="miter" d="M 967.99549 -0.00359805 C 433.387671 -0.00359805 -0.00323751 433.38731 -0.00323751 967.995129 C -0.00323751 1502.613249 433.387671 1936.004157 967.99549 1936.004157 C 1502.613609 1936.004157 1936.004518 1502.613249 1936.004518 967.995129 C 1936.004518 433.38731 1502.613609 -0.00359805 967.99549 -0.00359805 Z M 967.99549 -0.00359805 " stroke="#000000" stroke-width="200" stroke-opacity="1" stroke-miterlimit="4"/></g></g><g clip-path="url(#40f3b0900e)"><path fill="#000000" d="M 896.035156 236.707031 L 885.195312 239.207031 C 878.539062 241.199219 871.472656 244.089844 863.992188 247.878906 L 852.464844 254.242188 C 844.574219 258.9375 836.273438 264.53125 827.558594 271.027344 C 810.128906 284.019531 791.054688 300.617188 770.332031 320.820312 C 719.617188 371.636719 674.644531 427.464844 635.410156 488.304688 C 628.449219 473.636719 618.046875 456.386719 604.203125 436.554688 C 596.832031 426.5625 589.242188 419.027344 581.433594 413.953125 C 572.71875 412.902344 558.402344 419.363281 538.484375 433.328125 C 537.214844 435.242188 536.902344 436.730469 537.550781 437.785156 C 555.433594 456.0625 567.933594 471.25 575.046875 483.347656 C 588.324219 504.167969 602.253906 533.375 616.832031 570.960938 C 617.644531 572.226562 618.667969 572.652344 619.902344 572.242188 L 667.441406 542.308594 C 669.703125 540.75 671.867188 538.667969 673.933594 536.070312 C 697.832031 468.886719 726.339844 414.25 759.453125 372.15625 C 769.429688 357.96875 794.027344 332.933594 833.246094 297.046875 C 849.128906 282.890625 871.746094 265.714844 901.105469 245.515625 C 902.808594 241.660156 901.117188 238.726562 896.035156 236.707031 " fill-opacity="0.996" fill-rule="nonzero"/></g></svg>