<svg xmlns="http://www.w3.org/2000/svg" xmlns:xlink="http://www.w3.org/1999/xlink" width="1920" zoomAndPan="magnify" viewBox="0 0 1440 809.999993" height="1080" preserveAspectRatio="xMidYMid meet" version="1.0"><defs><clipPath id="40b89dc209"><path d="M 550 329 L 1138 329 L 1138 809.996094 L 550 809.996094 Z M 550 329 " clip-rule="nonzero"/></clipPath><clipPath id="76c0ab6c4e"><path d="M 1060 186.839844 L 1437 186.839844 L 1437 643 L 1060 643 Z M 1060 186.839844 " clip-rule="nonzero"/></clipPath><clipPath id="4c99c31e56"><path d="M 1176 523 L 1437 523 L 1437 809.996094 L 1176 809.996094 Z M 1176 523 " clip-rule="nonzero"/></clipPath></defs><rect x="-144" width="1728" fill="#ffffff" y="-80.999999" height="971.999992" fill-opacity="1"/><rect x="-144" width="1728" fill="#e5e5e5" y="-80.999999" height="971.999992" fill-opacity="1"/><g clip-path="url(#40b89dc209)"><path fill="#b8b8b8" d="M 555.679688 809.996094 L 555.679688 732.792969 L 663.039062 670.765625 L 725.925781 707.125 L 725.925781 776.789062 L 770.398438 802.554688 L 770.398438 809.996094 L 775.167969 809.996094 L 775.167969 805.226562 L 783.375 809.996094 L 792.917969 809.996094 L 775.167969 799.785156 L 775.167969 730.027344 L 730.699219 704.355469 L 730.699219 662.082031 L 745.777344 670.765625 L 856.667969 606.730469 L 857.90625 606.0625 L 857.90625 600.050781 L 927.09375 640.039062 L 913.542969 647.765625 L 913.542969 776.789062 L 927.09375 784.613281 L 883.386719 809.996094 L 892.929688 809.996094 L 932.054688 787.378906 L 970.992188 809.996094 L 980.535156 809.996094 L 936.636719 784.613281 L 948.945312 777.457031 L 950.1875 776.789062 L 950.1875 647.765625 L 936.636719 640.039062 L 1025.671875 588.601562 L 1133.03125 650.058594 L 1133.03125 774.117188 L 1070.714844 809.996094 L 1080.257812 809.996094 L 1136.5625 777.457031 L 1137.707031 776.789062 L 1137.707031 647.765625 L 1025.578125 583.066406 L 931.769531 637.269531 L 857.8125 594.515625 L 857.8125 546.800781 L 930.148438 588.601562 L 1041.226562 523.707031 L 1042.371094 522.945312 L 1042.371094 393.925781 L 930.242188 329.128906 L 818.113281 393.925781 L 818.113281 453.664062 L 745.777344 411.863281 L 635.269531 475.992188 L 634.125 476.660156 L 634.125 606.0625 L 725.925781 659.3125 L 725.925781 701.589844 L 663.039062 665.324219 L 552.148438 729.359375 L 550.910156 730.027344 L 550.910156 809.996094 Z M 945.414062 650.058594 L 945.414062 774.117188 L 931.863281 781.367188 L 918.3125 773.542969 L 918.3125 649.484375 L 931.863281 641.660156 Z M 770.398438 732.792969 L 770.398438 797.019531 L 730.699219 774.019531 L 730.699219 709.796875 Z M 853.136719 603.296875 L 745.777344 665.324219 L 730.699219 656.546875 L 730.699219 650.058594 L 838.058594 588.125 L 853.136719 596.808594 Z M 822.882812 396.597656 L 930.242188 334.660156 L 1037.601562 396.597656 L 1037.601562 520.65625 L 930.242188 582.683594 L 857.90625 540.886719 L 857.90625 476.660156 L 822.882812 456.90625 Z M 822.882812 461.871094 L 853.136719 479.332031 L 853.136719 538.023438 L 822.882812 520.558594 Z M 638.417969 603.296875 L 638.417969 479.238281 L 745.777344 417.398438 L 818.113281 459.101562 L 818.113281 523.707031 L 853.136719 543.9375 L 853.136719 591.65625 L 838.058594 582.96875 L 725.925781 647.765625 L 725.925781 654.257812 Z M 638.417969 603.296875 " fill-opacity="1" fill-rule="nonzero"/></g><g clip-path="url(#76c0ab6c4e)"><path fill="#b8b8b8" d="M 1195.917969 642.042969 L 1330.1875 564.457031 L 1331.332031 563.789062 L 1331.332031 480.957031 L 1363.398438 499.46875 L 1436.878906 456.90625 L 1436.878906 451.371094 L 1363.398438 493.742188 L 1331.332031 475.992188 L 1331.332031 407.855469 L 1232.660156 350.597656 L 1232.660156 267.765625 L 1363.398438 192.089844 L 1436.878906 234.554688 L 1436.878906 229.019531 L 1363.398438 186.652344 L 1229.128906 264.140625 L 1227.886719 264.808594 L 1227.886719 347.640625 L 1195.917969 329.128906 L 1061.554688 406.710938 L 1060.410156 407.378906 L 1060.410156 563.789062 Z M 1232.660156 355.753906 L 1326.5625 410.148438 L 1326.5625 472.75 L 1232.660156 418.734375 Z M 1064.703125 410.148438 L 1195.441406 334.660156 L 1227.886719 353.175781 L 1227.886719 421.3125 L 1326.5625 478.570312 L 1326.5625 561.019531 L 1195.917969 636.507812 L 1064.703125 561.019531 Z M 1064.703125 410.148438 " fill-opacity="1" fill-rule="nonzero"/></g><g clip-path="url(#4c99c31e56)"><path fill="#b8b8b8" d="M 1181.605469 809.996094 L 1181.605469 678.878906 L 1312.246094 603.390625 L 1366.355469 634.597656 L 1366.355469 720.484375 L 1436.878906 760.945312 L 1436.878906 755.410156 L 1371.128906 717.238281 L 1371.128906 637.078125 L 1436.878906 675.347656 L 1436.878906 669.8125 L 1371.128906 631.640625 L 1371.128906 566.367188 L 1436.878906 528.574219 L 1436.878906 523.136719 L 1367.597656 563.121094 L 1366.355469 563.789062 L 1366.355469 628.679688 L 1312.246094 597.378906 L 1177.976562 675.441406 L 1176.832031 676.109375 L 1176.832031 809.996094 Z M 1181.605469 809.996094 " fill-opacity="1" fill-rule="nonzero"/></g></svg>