<svg id="logo" xmlns="http://www.w3.org/2000/svg" xmlns:xlink="http://www.w3.org/1999/xlink" width="140" height="133.192" viewBox="0 0 140 133.192">
  <rect id="Rectángulo_1544" data-name="Rectángulo 1544" width="137.204" height="133.192" fill="#fff"/>
  <g id="Grupo_1661" data-name="Grupo 1661">
    <g id="Grupo_1660" data-name="Grupo 1660" clip-path="url(#clip-path)">
      <path id="Trazado_3464" data-name="Trazado 3464" d="M80.737,83.922l-2.183,18.655H27.7V101.2c3.065-1.332,4.974-2.575,5.731-3.686s1.154-3.421,1.154-6.929V49.544c0-3.508-.4-5.822-1.154-6.929s-2.665-2.354-5.731-3.686V37.6H75.359L77,56.121H75.625a22.461,22.461,0,0,0-6.795-9.594,17.965,17.965,0,0,0-12.038-4.086H50.086v23.4h7.46a12.288,12.288,0,0,0,6.929-1.91,13.307,13.307,0,0,0,4.4-4.53h1.155v17.77H68.871c-2.532-4.931-6.306-7.373-11.281-7.328l-7.46.177V93.385c0,1.288.843,2.31,2.531,3.109a16.16,16.16,0,0,0,6.84,1.2h2.177a15.135,15.135,0,0,0,10.26-4.087,33.909,33.909,0,0,0,7.551-9.593Z" transform="translate(-2.5 -3.394)" fill="#0C356A"/>
      <path id="Trazado_3465" data-name="Trazado 3465" d="M108.569,91.55c0,3.287.311,5.458.932,6.574s2.088,2.221,4.354,3.375v1.376H89.2V101.5c2.31-1.154,3.774-2.309,4.4-3.42s.932-3.331.932-6.618V74.449a27.394,27.394,0,0,0-.622-6.617,6.55,6.55,0,0,0-1.421-3.02,34.282,34.282,0,0,0-3.287-2.4V61.125a91.3,91.3,0,0,0,19.321-3.6V91.461ZM100.53,52.332a7.36,7.36,0,0,1-5.2-2.092,6.488,6.488,0,0,1-2.176-4.886,6.368,6.368,0,0,1,2.176-4.8,7.36,7.36,0,0,1,5.2-2.092,7.14,7.14,0,0,1,5.152,2.042,6.613,6.613,0,0,1,0,9.728,7.181,7.181,0,0,1-5.108,2Z" transform="translate(-8.052 -3.472)" fill="#0C356A"/>
    </g>
  </g>
</svg>
